<svg width="376" height="122" viewBox="0 0 376 122" fill="none" xmlns="http://www.w3.org/2000/svg">
<path d="M390.299 44.4161C400.767 28.4374 408.624 3.16171 397.324 -13.8932C394.588 -18.0225 390.913 -21.3971 387.001 -24.4671C381.748 -28.5825 375.65 -32.2961 368.972 -32.2566C362.786 -32.1992 356.871 -28.7955 353.012 -23.9145C349.153 -19.0334 347.228 -12.8323 346.779 -6.6514C346.1 2.44716 348.507 11.5872 347.648 20.6923C346.811 29.6561 342.884 38.852 345.774 47.3402C353.099 68.9146 381.02 58.5752 390.299 44.4161ZM359.683 23.6784C361.626 18.6318 367.071 15.0179 367.422 9.63924C367.717 5.14598 364.273 0.556171 366.146 -3.54803C367.644 -6.8137 372.006 -7.88463 375.436 -6.84603C380.11 -5.43577 383.415 -1.02448 384.606 3.71579C385.797 8.45607 385.171 13.496 384.037 18.2792C382.022 26.7899 379.67 42.5697 366.682 38.4153C360.865 36.5386 357.471 29.3802 359.668 23.6662L359.683 23.6784Z" fill="#ABE5BC"/>
<path d="M37.3439 54.4751C36.4422 53.3459 35.4869 52.1972 34.1923 51.5525C31.2714 50.0936 27.8136 51.6593 24.9341 53.2033C24.1329 53.6318 23.2599 54.1528 23.032 55.0302C22.8041 55.9076 23.2485 56.6685 23.67 57.4025C28.4196 65.6884 33.7098 73.6524 39.5063 81.2429C40.7224 82.8424 41.9765 84.4178 43.6543 85.5013C50.2132 89.7062 55.7711 81.0061 52.5157 75.4038C48.3031 68.1808 42.5572 61.0137 37.3439 54.4751Z" fill="#ABE5BC"/>
<path d="M16.6986 60.7525C15.3103 59.2084 13.8737 57.6534 12.0798 56.6017C10.9974 55.9484 9.7945 55.5195 8.54267 55.3405C7.29085 55.1615 6.01568 55.236 4.79302 55.5597C3.57518 55.905 2.46225 56.5478 1.55456 57.4302C0.646878 58.3125 -0.0270534 59.4067 -0.406514 60.6141C-1.40801 64.1034 0.469041 67.7175 2.36637 70.8101C8.4084 80.6042 15.2656 89.8715 22.8649 98.5135C24.6569 100.566 26.5103 102.604 28.7767 104.132C29.8508 104.927 31.0953 105.461 32.4117 105.691C35.3045 106.073 37.9961 104.222 40.1517 102.253C41.3415 101.273 42.3135 100.055 43.0053 98.6779C44.5191 95.2501 41.3915 92.3655 39.5825 89.732C37.2103 86.2902 34.7654 82.902 32.2479 79.5676C27.3278 73.0748 22.1447 66.8031 16.6986 60.7525Z" fill="#ABE5BC"/>
<path d="M13.7431 102.114C14.265 103.973 14.6658 106.063 13.7384 107.737C13.189 108.596 12.4697 109.333 11.6249 109.904C10.1674 111.019 8.33677 112.114 6.61092 111.499C5.78883 111.132 5.06684 110.573 4.50543 109.869C-1.72308 103.125 -7.06028 95.609 -11.3755 87.5061C-12.1095 86.1172 -12.8393 84.566 -12.4988 83.0319C-12.1582 81.4978 -10.8783 80.4302 -9.6664 79.4706C-6.89036 77.2463 -3.80243 74.991 -0.0546706 75.9402C2.48845 76.5843 3.2527 78.2558 4.30027 80.4703C7.67 87.6334 11.5905 94.384 13.7431 102.114Z" fill="#ABE5BC"/>
</svg>
