<svg width="8" height="8" viewBox="0 0 8 8" fill="none" xmlns="http://www.w3.org/2000/svg">
<path d="M7.72068 0.805864C7.67156 0.756644 7.61322 0.717594 7.54899 0.69095C7.48476 0.664307 7.41591 0.650592 7.34637 0.650592C7.27683 0.650592 7.20798 0.664307 7.14375 0.69095C7.07952 0.717594 7.02117 0.756644 6.97205 0.805864L4.37573 3.39688L1.77941 0.800555C1.73026 0.751399 1.6719 0.712406 1.60767 0.685803C1.54345 0.6592 1.47461 0.645508 1.4051 0.645508C1.33558 0.645508 1.26674 0.6592 1.20252 0.685803C1.13829 0.712406 1.07994 0.751399 1.03078 0.800555C0.981623 0.84971 0.942631 0.908067 0.916028 0.972292C0.889425 1.03652 0.875732 1.10535 0.875732 1.17487C0.875732 1.24439 0.889425 1.31322 0.916028 1.37745C0.942631 1.44167 0.981623 1.50003 1.03078 1.54919L3.6271 4.14551L1.03078 6.74183C0.981623 6.79098 0.942631 6.84934 0.916028 6.91357C0.889425 6.97779 0.875732 7.04663 0.875732 7.11614C0.875732 7.18566 0.889425 7.2545 0.916028 7.31872C0.942631 7.38295 0.981623 7.4413 1.03078 7.49046C1.07994 7.53962 1.13829 7.57861 1.20252 7.60521C1.26674 7.63181 1.33558 7.64551 1.4051 7.64551C1.47461 7.64551 1.54345 7.63181 1.60767 7.60521C1.6719 7.57861 1.73026 7.53962 1.77941 7.49046L4.37573 4.89414L6.97205 7.49046C7.02121 7.53962 7.07956 7.57861 7.14379 7.60521C7.20802 7.63181 7.27685 7.64551 7.34637 7.64551C7.41589 7.64551 7.48472 7.63181 7.54895 7.60521C7.61317 7.57861 7.67153 7.53962 7.72068 7.49046C7.76984 7.4413 7.80883 7.38295 7.83544 7.31872C7.86204 7.2545 7.87573 7.18566 7.87573 7.11614C7.87573 7.04663 7.86204 6.97779 7.83544 6.91357C7.80883 6.84934 7.76984 6.79098 7.72068 6.74183L5.12436 4.14551L7.72068 1.54919C7.92244 1.34743 7.92244 1.00762 7.72068 0.805864Z" fill="#1E1E1E"/>
</svg>
