<svg width="21" height="24" viewBox="0 0 21 24" fill="none" xmlns="http://www.w3.org/2000/svg">
<path d="M4.649 17.0799C3.58916 17.0799 2.72713 16.697 2.08072 15.9366C1.43432 15.1763 1.0101 14.048 0.763067 12.4065C0.399318 9.98727 0.760255 7.9482 1.77932 6.66524C2.37932 5.90961 3.16682 5.47274 4.0565 5.40242C4.81822 5.34149 5.95682 5.65039 7.0565 7.46492C7.7451 8.60117 8.26869 10.1105 8.49322 11.6059C8.76463 13.411 8.5626 14.7399 7.87541 15.6676C7.32979 16.4045 6.49072 16.861 5.38119 17.027C5.13876 17.0626 4.89404 17.0803 4.649 17.0799ZM6.4851 23.3954C5.86588 23.3954 5.23822 23.1971 4.67291 22.816C3.85716 22.2632 3.29251 21.4109 3.10166 20.4441C2.96807 19.757 3.04822 19.2109 3.34635 18.7735C3.83057 18.0634 4.69963 17.9035 5.61932 17.7338C5.71635 17.716 5.81479 17.6982 5.91463 17.679C6.1265 17.6387 6.34307 17.5852 6.55307 17.5332C7.33963 17.3391 8.15338 17.138 8.8251 17.6152C9.27463 17.934 9.52822 18.4759 9.60416 19.2709C9.69041 20.1882 9.49354 21.1037 9.04963 21.849C8.57197 22.651 7.85572 23.1812 7.034 23.3424C6.85317 23.3777 6.66935 23.3955 6.4851 23.3954ZM16.1024 12.5799C15.8576 12.5791 15.6132 12.5603 15.3712 12.5237C14.2621 12.3596 13.4231 11.9026 12.8774 11.1643C12.1903 10.2366 11.9868 8.9082 12.2596 7.10258C12.4842 5.60586 13.0063 4.09789 13.6917 2.96586C14.7857 1.15789 15.9257 0.844299 16.6917 0.899611C17.5785 0.964299 18.3646 1.39508 18.9656 2.14649C19.9917 3.42945 20.3554 5.47461 19.9902 7.90461C19.7432 9.54524 19.3246 10.6679 18.6726 11.4348C18.0206 12.2016 17.1623 12.5799 16.1024 12.5799ZM14.2663 18.8954C14.0826 18.8954 13.8992 18.8776 13.7188 18.8424C12.8957 18.6812 12.1795 18.151 11.7032 17.349C11.2593 16.6037 11.0624 15.6882 11.1487 14.7709C11.2237 13.974 11.4768 13.434 11.9278 13.1148C12.5995 12.638 13.4132 12.8387 14.1998 13.0332C14.4098 13.0848 14.6263 13.1382 14.8382 13.179L15.1331 13.2338C16.0532 13.403 16.9223 13.562 17.4065 14.273C17.7046 14.7104 17.7848 15.2574 17.6512 15.9437C17.4605 16.9106 16.8958 17.7632 16.0799 18.316C15.5113 18.6976 14.8837 18.8954 14.2663 18.8954Z" fill="#1E1E1E"/>
</svg>
