<svg width="171" height="68" viewBox="0 0 171 68" fill="none" xmlns="http://www.w3.org/2000/svg">
<path d="M4.51315 50.2335C4.51315 50.7135 4.89715 51.1455 5.42515 51.1455H7.24915C7.72915 51.1455 8.16115 50.7135 8.16115 50.2335L8.16115 38.9535H16.0811C21.9371 38.9535 26.7851 34.1055 26.7851 28.1535C26.7851 22.3455 21.9371 17.5455 16.0331 17.5455H5.42515C4.89715 17.5455 4.51315 17.9775 4.51315 18.4575L4.51315 50.2335ZM8.16115 35.4015V21.1935H15.7932C19.7291 21.1935 23.0891 23.7855 23.0891 28.0575C23.0891 32.4735 19.7291 35.4015 15.7932 35.4015H8.16115ZM56.0288 50.2335C56.0288 50.7135 56.4128 51.1455 56.9408 51.1455H58.8128C59.2928 51.1455 59.7248 50.7135 59.7248 50.2335V37.9935H68.8928L75.1328 50.4255C75.3728 50.9055 75.6128 51.1455 76.1888 51.1455H78.4928C79.3088 51.1455 79.6448 50.3775 79.3088 49.7535L72.7328 37.5615C76.9088 35.8815 79.8368 32.1855 79.8368 27.7695C79.8368 22.0575 75.1328 17.5455 69.3728 17.5455L56.9408 17.5455C56.4128 17.5455 56.0288 17.9775 56.0288 18.4575V50.2335ZM59.8208 34.8255V21.0495L69.1328 21.0495C72.8288 21.0495 76.0448 24.1695 76.0448 27.8175C76.0448 31.7535 72.8288 34.8255 69.1328 34.8255H59.8208ZM86.9115 38.9535C86.9115 46.2495 92.0475 51.6255 99.5835 51.6255C107.168 51.6255 112.352 46.2495 112.352 38.9535V18.4575C112.352 17.9775 111.92 17.5455 111.44 17.5455H109.616C109.088 17.5455 108.704 17.9775 108.704 18.4575V38.7615C108.704 44.2335 105.248 48.2175 99.5835 48.2175C93.9675 48.2175 90.5595 44.1375 90.5595 38.6655V18.4575C90.5595 17.9775 90.1755 17.5455 89.6475 17.5455H87.8235C87.3435 17.5455 86.9115 17.9775 86.9115 18.4575V38.9535ZM119.648 47.7375C120.272 48.3135 124.112 51.6255 129.776 51.6255C135.392 51.6255 140.144 47.7855 140.144 42.7935C140.144 37.2255 135.968 34.7775 129.488 32.1375C125.456 30.4575 123.008 28.9695 123.008 25.5615C123.008 23.5455 124.544 20.2815 129.632 20.2815C132.32 20.2815 134 21.0015 136.016 22.2015C136.784 22.6335 137.312 22.6335 137.696 21.9615L138.176 21.1455C138.704 20.2335 138.176 19.6575 137.888 19.5135C137.888 19.5135 134.384 17.0655 129.68 17.0655C122.048 17.0655 119.456 22.3455 119.456 25.6095C119.456 31.0815 122.624 33.0975 127.904 35.3535C133.424 37.7055 136.304 39.6255 136.304 42.9375C136.304 45.9615 133.76 48.4095 129.872 48.4095C125.6 48.4095 121.952 45.1935 121.616 44.9055C120.944 44.3295 120.56 44.5695 120.08 45.1935L119.36 46.1055C118.688 46.9695 119.264 47.4015 119.648 47.7375ZM146.779 50.2335C146.779 50.7135 147.163 51.1455 147.691 51.1455H166.603C167.131 51.1455 167.515 50.7135 167.515 50.2335V48.8415C167.515 48.3615 167.131 47.9295 166.603 47.9295H150.475V35.6895H164.251C164.731 35.6895 165.163 35.3055 165.163 34.7775V33.3855C165.163 32.9055 164.731 32.4735 164.251 32.4735H150.475V20.7615H166.603C167.131 20.7615 167.515 20.3295 167.515 19.8495V18.4575C167.515 17.9775 167.131 17.5455 166.603 17.5455H147.691C147.163 17.5455 146.779 17.9775 146.779 18.4575V50.2335Z" fill="#1E1E1E"/>
<path d="M51.5862 50.2335C51.5862 50.7135 51.2022 51.1455 50.6742 51.1455H31.7622C31.2342 51.1455 30.8502 50.7135 30.8502 50.2335V48.8415C30.8502 48.3615 31.2342 47.9295 31.7622 47.9295H47.8902V35.6895H34.1142C33.6342 35.6895 33.2022 35.3055 33.2022 34.7775V33.3855C33.2022 32.9055 33.6342 32.4735 34.1142 32.4735H47.8902V20.7615H31.7622C31.2342 20.7615 30.8502 20.3295 30.8502 19.8495V18.4575C30.8502 17.9775 31.2342 17.5455 31.7622 17.5455H50.6742C51.2022 17.5455 51.5862 17.9775 51.5862 18.4575V50.2335Z" fill="#1E1E1E"/>
</svg>
