<svg width="376" height="371" viewBox="0 0 376 371" fill="none" xmlns="http://www.w3.org/2000/svg">
<rect x="54.7454" y="1.32947" width="271" height="369" rx="31.881" fill="#FFA89A" stroke="#1E1E1E"/>
<path d="M99.6219 68.5647C99.6219 68.8237 99.8551 69.0569 100.114 69.0569H102.523C102.782 69.0569 103.015 68.8237 103.015 68.5647V51.4157C103.015 51.1567 102.782 50.9236 102.523 50.9236H100.114C99.8551 50.9236 99.6219 51.1567 99.6219 51.4157L99.6219 68.5647ZM106.617 68.487C106.617 68.7978 106.902 69.0569 107.187 69.0569H109.103C109.673 69.0569 109.855 68.9274 109.855 68.487V61.6481C110.14 60.8192 110.891 59.783 112.445 59.783C113.896 59.783 114.518 60.7415 114.518 62.2957V68.487C114.518 68.7978 114.777 69.0569 115.087 69.0569H117.186C117.471 69.0569 117.756 68.7978 117.756 68.487V62.2957C117.756 59.3944 116.771 56.8298 112.963 56.8298C110.658 56.8298 109.544 58.0733 109.103 58.5655L108.663 57.4515C108.585 57.2184 108.456 57.0889 108.171 57.0889H107.187C106.902 57.0889 106.617 57.322 106.617 57.6588V68.487ZM121.194 64.0832H126.971C127.256 64.0832 127.463 63.8759 127.463 63.6169V61.8813C127.463 61.5963 127.256 61.3891 126.971 61.3891H121.194C120.909 61.3891 120.702 61.5963 120.702 61.8813V63.6169C120.702 63.8759 120.909 64.0832 121.194 64.0832ZM136.04 69.3159C139.693 69.3159 141.998 66.855 141.998 64.1868C141.998 60.8451 139.097 59.3426 136.584 58.3323C134.486 57.4775 133.527 56.6485 133.527 55.431C133.527 54.4466 134.33 53.6176 135.807 53.6176C137.232 53.6176 138.294 54.343 139.408 55.0424C139.718 55.2496 140.107 55.0424 140.314 54.7315L141.299 53.255C141.48 52.9959 141.402 52.5556 141.143 52.4001C140.625 52.0115 138.605 50.6645 135.962 50.6645C131.843 50.6645 130.134 53.3327 130.134 55.6382C130.134 58.695 132.569 60.2493 135.004 61.2336C137.18 62.1144 138.294 63.0211 138.294 64.3422C138.294 65.4561 137.283 66.3369 135.936 66.3369C134.253 66.3369 133.087 65.5338 132.025 64.7308C131.792 64.5495 131.351 64.5495 131.144 64.9121L130.211 66.5182C129.978 66.9327 130.082 67.0881 130.341 67.2954C131.092 67.943 132.776 69.3159 136.04 69.3159ZM145.063 65.482C145.063 67.5544 145.736 69.3418 148.404 69.3418C149.648 69.3418 151.357 68.7978 151.772 68.5647C152.057 68.4093 152.186 68.1761 152.109 67.8653L151.772 66.2851C151.72 66.0001 151.435 65.8447 151.098 65.9742C150.787 66.0778 149.803 66.3628 149.285 66.3628C148.689 66.3628 148.301 66.1815 148.301 65.3784V59.9902H151.098C151.409 59.9902 151.668 59.7053 151.668 59.4203V57.6588C151.668 57.322 151.409 57.0889 151.098 57.0889H148.301V53.7731C148.301 53.4622 148.067 53.2032 147.757 53.2032H145.632C145.347 53.2032 145.063 53.4622 145.063 53.7731V57.0889H143.897C143.586 57.0889 143.353 57.322 143.353 57.6588V59.4203C143.353 59.7053 143.586 59.9902 143.897 59.9902H145.063V65.482ZM153.628 63.047C153.628 66.4664 156.374 69.3418 159.741 69.3418C163.135 69.3418 165.881 66.4664 165.881 63.047C165.881 59.6794 163.135 56.8298 159.741 56.8298C156.374 56.8298 153.628 59.6794 153.628 63.047ZM156.633 63.047C156.633 61.2336 158.006 59.783 159.741 59.783C161.477 59.783 162.876 61.2336 162.876 63.047C162.876 64.8862 161.477 66.3887 159.741 66.3887C158.006 66.3887 156.633 64.8862 156.633 63.047ZM168.444 68.487C168.444 68.7978 168.729 69.0569 169.014 69.0569H171.009C171.397 69.0569 171.682 68.9274 171.682 68.487V61.0264C171.889 60.6119 172.666 59.783 173.962 59.783C174.506 59.783 174.791 59.8866 175.076 60.0161C175.361 60.1456 175.646 60.042 175.775 59.7571L176.552 57.9955C176.889 57.2184 175.723 56.8298 174.298 56.8298C172.459 56.8298 171.345 58.0474 170.931 58.6432L170.49 57.4775C170.387 57.2184 170.257 57.0889 169.972 57.0889H169.014C168.729 57.0889 168.444 57.322 168.444 57.6588V68.487ZM177.433 63.0729C177.433 66.4923 179.92 69.3418 183.495 69.3418C185.438 69.3418 186.914 68.5906 187.95 67.7098C188.235 67.4508 188.209 67.1658 188.002 66.9327L186.992 65.5856C186.81 65.3266 186.5 65.3525 186.215 65.5856C185.671 66.026 184.842 66.4664 183.65 66.4664C181.914 66.4664 180.697 65.1712 180.671 63.6946H188.339C188.598 63.6946 188.883 63.4615 188.909 63.1506C188.935 62.9693 188.961 62.5548 188.961 62.3735C188.961 59.1354 186.577 56.8298 183.469 56.8298C179.92 56.8298 177.433 59.7053 177.433 63.0729ZM180.852 61.5704C181.008 60.3788 181.94 59.498 183.391 59.498C184.712 59.498 185.645 60.4047 185.697 61.5704H180.852ZM97.9122 97.0569H100.166C100.58 97.0569 100.814 96.7978 100.917 96.5388L102.187 93.7411H109.932L111.201 96.5388C111.383 96.9014 111.564 97.0569 111.953 97.0569H114.206C114.595 97.0569 114.802 96.7201 114.647 96.3834L106.668 78.9494C106.59 78.794 106.487 78.6645 106.228 78.6645H105.969C105.735 78.6645 105.606 78.794 105.528 78.9494L97.4719 96.3834C97.3164 96.7201 97.5237 97.0569 97.9122 97.0569ZM103.456 90.8656L105.995 85.1666H106.072L108.663 90.8656H103.456ZM119.93 97.3418C122.935 97.3418 124.542 95.658 124.542 93.767C124.542 91.3837 122.884 90.5548 120.578 89.6222C119.464 89.1559 118.868 88.871 118.868 88.327C118.868 87.9384 119.205 87.5498 120.008 87.5498C120.993 87.5498 121.822 87.8866 122.391 88.1456C122.65 88.2493 122.961 88.1974 123.143 87.9125L123.816 86.5395C123.972 86.2287 123.816 85.9178 123.557 85.7106C122.91 85.2961 121.77 84.8298 120.008 84.8298C117.081 84.8298 115.708 86.5136 115.708 88.327C115.708 90.1403 116.744 91.2283 119.05 92.1091C120.63 92.7308 121.303 93.223 121.303 93.767C121.303 94.2851 120.889 94.6218 119.982 94.6218C118.739 94.6218 117.884 94.1814 117.34 93.8447C117.055 93.6634 116.77 93.767 116.641 94.0519L115.863 95.6062C115.734 95.8653 115.863 96.1502 116.019 96.2538C116.692 96.7201 117.936 97.3418 119.93 97.3418ZM130.631 97.3418C133.636 97.3418 135.242 95.658 135.242 93.767C135.242 91.3837 133.585 90.5548 131.279 89.6222C130.165 89.1559 129.569 88.871 129.569 88.327C129.569 87.9384 129.906 87.5498 130.709 87.5498C131.693 87.5498 132.522 87.8866 133.092 88.1456C133.351 88.2493 133.662 88.1974 133.844 87.9125L134.517 86.5395C134.673 86.2287 134.517 85.9178 134.258 85.7106C133.61 85.2961 132.471 84.8298 130.709 84.8298C127.782 84.8298 126.409 86.5136 126.409 88.327C126.409 90.1403 127.445 91.2283 129.751 92.1091C131.331 92.7308 132.004 93.223 132.004 93.767C132.004 94.2851 131.59 94.6218 130.683 94.6218C129.44 94.6218 128.585 94.1814 128.041 93.8447C127.756 93.6634 127.471 93.767 127.341 94.0519L126.564 95.6062C126.435 95.8653 126.564 96.1502 126.72 96.2538C127.393 96.7201 128.637 97.3418 130.631 97.3418ZM137.783 96.487C137.783 96.7978 138.068 97.0569 138.353 97.0569H140.451C140.736 97.0569 141.021 96.7978 141.021 96.487V85.6588C141.021 85.322 140.736 85.0889 140.451 85.0889H138.353C138.068 85.0889 137.783 85.322 137.783 85.6588V96.487ZM139.363 83.0424C140.529 83.0424 141.436 82.1098 141.436 80.97C141.436 79.8302 140.529 78.9235 139.363 78.9235C138.198 78.9235 137.317 79.8302 137.317 80.97C137.317 82.1098 138.198 83.0424 139.363 83.0424ZM147.884 97.3418C150.889 97.3418 152.495 95.658 152.495 93.767C152.495 91.3837 150.837 90.5548 148.532 89.6222C147.418 89.1559 146.822 88.871 146.822 88.327C146.822 87.9384 147.159 87.5498 147.962 87.5498C148.946 87.5498 149.775 87.8866 150.345 88.1456C150.604 88.2493 150.915 88.1974 151.097 87.9125L151.77 86.5395C151.925 86.2287 151.77 85.9178 151.511 85.7106C150.863 85.2961 149.724 84.8298 147.962 84.8298C145.035 84.8298 143.662 86.5136 143.662 88.327C143.662 90.1403 144.698 91.2283 147.004 92.1091C148.584 92.7308 149.257 93.223 149.257 93.767C149.257 94.2851 148.843 94.6218 147.936 94.6218C146.693 94.6218 145.838 94.1814 145.294 93.8447C145.009 93.6634 144.724 93.767 144.594 94.0519L143.817 95.6062C143.688 95.8653 143.817 96.1502 143.973 96.2538C144.646 96.7201 145.89 97.3418 147.884 97.3418ZM155.839 93.482C155.839 95.5544 156.513 97.3418 159.181 97.3418C160.424 97.3418 162.134 96.7978 162.549 96.5647C162.834 96.4093 162.963 96.1761 162.885 95.8653L162.549 94.2851C162.497 94.0001 162.212 93.8447 161.875 93.9742C161.564 94.0778 160.58 94.3628 160.062 94.3628C159.466 94.3628 159.077 94.1814 159.077 93.3784V87.9902H161.875C162.186 87.9902 162.445 87.7053 162.445 87.4203V85.6588C162.445 85.322 162.186 85.0889 161.875 85.0889H159.077V81.7731C159.077 81.4622 158.844 81.2032 158.533 81.2032H156.409C156.124 81.2032 155.839 81.4622 155.839 81.7731V85.0889H154.674C154.363 85.0889 154.13 85.322 154.13 85.6588V87.4203C154.13 87.7053 154.363 87.9902 154.674 87.9902H155.839V93.482ZM164.301 93.2489C164.301 95.8134 165.959 97.3418 168.342 97.3418C170.207 97.3418 171.399 96.5129 172.098 95.8394L172.435 96.6424C172.591 96.9792 172.746 97.0569 172.953 97.0569H173.834C174.145 97.0569 174.404 96.7978 174.404 96.487V90.0367C174.404 86.7727 173.627 84.8298 169.896 84.8298C167.954 84.8298 166.063 85.322 165.804 85.4256C165.544 85.5034 165.311 85.7106 165.415 86.151L165.674 87.498C165.726 87.8607 165.959 88.1456 166.348 88.0161C167.047 87.8089 168.627 87.5757 169.715 87.5757C170.984 87.5757 171.425 88.3011 171.373 89.8294C171.373 89.8294 170.285 89.4927 169.068 89.4927C166.037 89.4927 164.301 91.1247 164.301 93.2489ZM167.41 93.2489C167.41 92.1868 168.161 91.5392 169.534 91.5392C170.492 91.5392 171.295 91.9018 171.295 91.9018V93.6634C171.14 94.1037 170.207 94.9327 169.145 94.9327C168.031 94.9327 167.41 94.2592 167.41 93.2489ZM177.627 96.487C177.627 96.7978 177.912 97.0569 178.197 97.0569H180.114C180.684 97.0569 180.865 96.9274 180.865 96.487V89.6481C181.15 88.8192 181.901 87.783 183.456 87.783C184.906 87.783 185.528 88.7414 185.528 90.2957V96.487C185.528 96.7978 185.787 97.0569 186.098 97.0569H188.196C188.481 97.0569 188.766 96.7978 188.766 96.487V90.2957C188.766 87.3944 187.782 84.8298 183.974 84.8298C181.668 84.8298 180.554 86.0733 180.114 86.5654L179.674 85.4515C179.596 85.2184 179.466 85.0889 179.181 85.0889H178.197C177.912 85.0889 177.627 85.322 177.627 85.6588V96.487ZM192.647 93.482C192.647 95.5544 193.321 97.3418 195.989 97.3418C197.232 97.3418 198.942 96.7978 199.357 96.5647C199.642 96.4093 199.771 96.1761 199.693 95.8653L199.357 94.2851C199.305 94.0001 199.02 93.8447 198.683 93.9742C198.372 94.0778 197.388 94.3628 196.87 94.3628C196.274 94.3628 195.885 94.1814 195.885 93.3784V87.9902H198.683C198.994 87.9902 199.253 87.7053 199.253 87.4203V85.6588C199.253 85.322 198.994 85.0889 198.683 85.0889H195.885V81.7731C195.885 81.4622 195.652 81.2032 195.341 81.2032H193.217C192.932 81.2032 192.647 81.4622 192.647 81.7731V85.0889H191.482C191.171 85.0889 190.938 85.322 190.938 85.6588V87.4203C190.938 87.7053 191.171 87.9902 191.482 87.9902H192.647V93.482Z" fill="#FFFAF0"/>
<rect x="151.388" y="152.929" width="131.683" height="8.62974" rx="4.31487" fill="#EF9485"/>
<rect x="151.388" y="170.188" width="79.873" height="8.62974" rx="4.31487" fill="#EF9485"/>
<ellipse cx="119.007" cy="165.873" rx="21.5873" ry="21.5743" fill="#EF9485"/>
<rect x="201.039" y="282.375" width="82.0317" height="8.62974" rx="4.31487" fill="#EF9485"/>
<rect x="151.388" y="282.375" width="41.0159" height="8.62974" rx="4.31487" fill="#EF9485"/>
<rect x="151.388" y="299.634" width="25.9048" height="8.62974" rx="4.31487" fill="#EF9485"/>
<ellipse cx="119.007" cy="295.319" rx="21.5873" ry="21.5743" fill="#EF9485"/>
<rect x="97.42" y="217.652" width="131.683" height="8.62974" rx="4.31487" fill="#EF9485"/>
<rect x="123.325" y="234.911" width="105.778" height="8.62974" rx="4.31487" fill="#EF9485"/>
<ellipse cx="261.483" cy="230.596" rx="21.5873" ry="21.5743" fill="#EF9485"/>
<rect x="-124.755" y="13.8295" width="169" height="343" rx="30" fill="#CFADE8"/>
<rect x="336.245" y="13.8295" width="169" height="343" rx="30" fill="#FFD787"/>
<rect x="25.2455" y="55.8295" width="48" height="20" rx="10" fill="#FFFAF0"/>
<rect x="25.2455" y="95.8295" width="48" height="20" rx="10" fill="#FFFAF0"/>
<rect x="25.2455" y="135.829" width="48" height="20" rx="10" fill="#FFFAF0"/>
<rect x="25.2455" y="175.829" width="48" height="20" rx="10" fill="#FFFAF0"/>
<rect x="25.2455" y="215.829" width="48" height="20" rx="10" fill="#FFFAF0"/>
<rect x="25.2455" y="255.829" width="48" height="20" rx="10" fill="#FFFAF0"/>
<rect x="25.2455" y="295.829" width="48" height="20" rx="10" fill="#FFFAF0"/>
<rect x="306.245" y="55.8295" width="48" height="20" rx="10" fill="#FFFAF0"/>
<rect x="306.245" y="95.8295" width="48" height="20" rx="10" fill="#FFFAF0"/>
<rect x="306.245" y="135.829" width="48" height="20" rx="10" fill="#FFFAF0"/>
<rect x="306.245" y="175.829" width="48" height="20" rx="10" fill="#FFFAF0"/>
<rect x="306.245" y="215.829" width="48" height="20" rx="10" fill="#FFFAF0"/>
<rect x="306.245" y="255.829" width="48" height="20" rx="10" fill="#FFFAF0"/>
<rect x="306.245" y="295.829" width="48" height="20" rx="10" fill="#FFFAF0"/>
</svg>
